<svg xmlns="http://www.w3.org/2000/svg" width="128" height="128" viewBox="0 0 128 128">
  <!-- Tileable stipple (no SVG filters — those often fail as CSS background-image in Chromium) -->
  <rect width="128" height="128" fill="#808080" />
  <g fill="#fff" opacity="0.5">
    <circle cx="4" cy="8" r="0.6" />
    <circle cx="18" cy="3" r="0.5" />
    <circle cx="31" cy="14" r="0.7" />
    <circle cx="45" cy="6" r="0.4" />
    <circle cx="58" cy="19" r="0.6" />
    <circle cx="72" cy="2" r="0.5" />
    <circle cx="86" cy="11" r="0.7" />
    <circle cx="99" cy="5" r="0.4" />
    <circle cx="113" cy="16" r="0.6" />
    <circle cx="126" cy="9" r="0.5" />
    <circle cx="9" cy="24" r="0.5" />
    <circle cx="23" cy="31" r="0.6" />
    <circle cx="37" cy="22" r="0.4" />
    <circle cx="51" cy="35" r="0.7" />
    <circle cx="64" cy="27" r="0.5" />
    <circle cx="78" cy="38" r="0.6" />
    <circle cx="92" cy="21" r="0.4" />
    <circle cx="106" cy="33" r="0.7" />
    <circle cx="120" cy="26" r="0.5" />
    <circle cx="2" cy="42" r="0.6" />
    <circle cx="16" cy="48" r="0.4" />
    <circle cx="29" cy="39" r="0.7" />
    <circle cx="43" cy="52" r="0.5" />
    <circle cx="57" cy="44" r="0.6" />
    <circle cx="71" cy="55" r="0.4" />
    <circle cx="85" cy="41" r="0.7" />
    <circle cx="98" cy="49" r="0.5" />
    <circle cx="112" cy="58" r="0.6" />
    <circle cx="125" cy="43" r="0.4" />
    <circle cx="7" cy="61" r="0.5" />
    <circle cx="21" cy="67" r="0.7" />
    <circle cx="35" cy="59" r="0.4" />
    <circle cx="49" cy="72" r="0.6" />
    <circle cx="63" cy="64" r="0.5" />
    <circle cx="77" cy="75" r="0.7" />
    <circle cx="91" cy="57" r="0.4" />
    <circle cx="104" cy="68" r="0.6" />
    <circle cx="118" cy="62" r="0.5" />
    <circle cx="12" cy="81" r="0.6" />
    <circle cx="26" cy="88" r="0.4" />
    <circle cx="40" cy="76" r="0.7" />
    <circle cx="54" cy="89" r="0.5" />
    <circle cx="68" cy="82" r="0.6" />
    <circle cx="82" cy="93" r="0.4" />
    <circle cx="96" cy="79" r="0.7" />
    <circle cx="110" cy="86" r="0.5" />
    <circle cx="123" cy="95" r="0.6" />
    <circle cx="5" cy="99" r="0.4" />
    <circle cx="19" cy="105" r="0.7" />
    <circle cx="33" cy="97" r="0.5" />
    <circle cx="47" cy="110" r="0.6" />
    <circle cx="61" cy="102" r="0.4" />
    <circle cx="75" cy="113" r="0.7" />
    <circle cx="89" cy="96" r="0.5" />
    <circle cx="103" cy="108" r="0.6" />
    <circle cx="117" cy="101" r="0.4" />
    <circle cx="14" cy="118" r="0.5" />
    <circle cx="28" cy="124" r="0.7" />
    <circle cx="42" cy="115" r="0.6" />
    <circle cx="56" cy="126" r="0.4" />
    <circle cx="70" cy="119" r="0.7" />
    <circle cx="84" cy="112" r="0.5" />
    <circle cx="98" cy="123" r="0.6" />
    <circle cx="112" cy="117" r="0.4" />
    <circle cx="126" cy="125" r="0.5" />
  </g>
</svg>
